Coordinates
version=1
nRows=11
nColumns=63
inDegrees=yes

Units are S.I. units (second, meters, Newtons, ...)
If the header above contains a line with 'inDegrees', this indicates whether rotational values are in degrees (yes) or radians (no).

endheader
time	pelvis_tilt	pelvis_list	pelvis_rotation	pelvis_tx	pelvis_ty	pelvis_tz	hip_flexion_r	hip_adduction_r	hip_rotation_r	knee_angle_r	knee_angle_r_beta	ankle_angle_r	subtalar_angle_r	mtp_angle_r	hip_flexion_l	hip_adduction_l	hip_rotation_l	knee_angle_l	knee_angle_l_beta	ankle_angle_l	subtalar_angle_l	mtp_angle_l	L5_S1_Flex_Ext	L5_S1_Lat_Bending	L5_S1_axial_rotation	L4_L5_Flex_Ext	L4_L5_Lat_Bending	L4_L5_axial_rotation	L3_L4_Flex_Ext	L3_L4_Lat_Bending	L3_L4_axial_rotation	L2_L3_Flex_Ext	L2_L3_Lat_Bending	L2_L3_axial_rotation	L1_L2_Flex_Ext	L1_L2_Lat_Bending	L1_L2_axial_rotation	L1_T12_Flex_Ext	L1_T12_Lat_Bending	L1_T12_axial_rotation	Abs_r3	Abs_r2	Abs_r1	Abs_t1	Abs_t2	neck_flexion	neck_bending	neck_rotation	arm_flex_r	arm_add_r	arm_rot_r	elbow_flex_r	pro_sup_r	wrist_flex_r	wrist_dev_r	arm_flex_l	arm_add_l	arm_rot_l	elbow_flex_l	pro_sup_l	wrist_flex_l	wrist_dev_l
      0.00000000	      4.09200243	     -4.05307232	     87.94108539	     -0.10460323	      0.81166927	      0.63171403	      0.73932519	      0.24414581	     -1.22304214	      7.05908365	      0.12320425	     24.99597330	     10.82575527	      0.00000000	     -1.66767114	     -1.47771517	      2.99789831	      0.85107555	      0.01485407	     25.01786525	    -11.83262533	      0.00000000	     -0.04306192	      0.80100843	      0.76857450	     -0.07997028	      1.06534122	      0.81661041	     -0.07074642	      1.94757190	      0.81661041	     -0.04921546	      1.94757190	      0.67250269	     -0.03998729	      1.63341640	      0.62446678	     -0.02460558	      1.24076206	      0.57643088	     -0.30758695	      9.06116760	      4.27458080	      0.00000000	      0.00000000	     25.60484847	     -4.75944694	     13.94283768	      6.89298782	    -14.75174237	    131.55699453	      4.56500903	      2.24168705	      2.42508998	     -7.08666627	     13.46193666	     -3.29034353	    153.38980204	      5.49139318	      2.73589747	      0.37356664	     -4.36051176
      0.02173913	      4.58578297	     -4.15215819	     87.83840181	     -0.10324967	      0.81155573	      0.63217818	      1.13947726	      0.88271710	     -0.92141551	      7.63165658	      0.13319753	     25.51681395	     10.45369335	      0.00000000	     -1.81373464	     -2.07480027	      3.07055572	      1.15257574	      0.02011624	     23.77545651	    -12.37877933	      0.00000000	     -0.03144516	      0.84914300	      0.76928903	     -0.05839681	      1.12936020	      0.81736960	     -0.05166126	      2.06460630	      0.81736960	     -0.03593868	      2.06460630	      0.67312790	     -0.02919998	      1.73157242	      0.62504734	     -0.01796777	      1.31532251	      0.57696677	     -0.22460965	      9.60567550	      4.27855480	      0.00000000	      0.00000000	     25.27905573	     -4.81328684	     14.16181052	      6.46216237	    -14.60734583	    133.73522715	      4.67906151	      2.83556965	     -0.25353140	     -7.94182001	     13.88045452	     -3.15967840	    153.42722401	      6.77674006	      3.31592428	     -0.34450393	     -5.06396603
      0.04347826	      4.90511342	     -4.22914690	     87.87037862	     -0.10220107	      0.81155800	      0.63248972	      1.36396061	      1.35088724	     -0.35706364	      7.90397373	      0.13795037	     25.67244256	      9.56034355	      0.00000000	     -1.88027327	     -2.48714689	      4.07010347	      1.34008904	      0.02338897	     22.83138494	    -13.60686615	      0.00000000	     -0.02190081	      0.87717736	      0.73548274	     -0.04067199	      1.16664589	      0.78145042	     -0.03598083	      2.13276904	      0.78145042	     -0.02503043	      2.13276904	      0.64354740	     -0.02033709	      1.78874008	      0.59757973	     -0.01251412	      1.35874774	      0.55161206	     -0.15643527	      9.92280577	      4.09053438	      0.00000000	      0.00000000	     25.06016375	     -4.69952017	     14.48675407	      6.22446396	    -14.32776582	    137.40976571	      4.19008757	      2.49218592	     -1.66699795	     -8.40325331	     14.44064772	     -3.24531429	    150.71011010	      8.72357681	      4.10878458	     -1.26939856	     -5.37977313
      0.06521739	      5.03442024	     -4.30764239	     87.80362827	     -0.10077789	      0.81168431	      0.63268322	      1.52756272	      1.58575152	     -0.20718683	      8.04408942	      0.14039585	     25.74625709	      9.60705854	      0.00000000	     -1.88509913	     -2.74529618	      4.30827759	      1.45747028	      0.02543766	     22.57444178	    -13.42093278	      0.00000000	     -0.01257818	      0.87775625	      0.72545456	     -0.02335894	      1.16741582	      0.77079547	     -0.02066470	      2.13417656	      0.77079547	     -0.01437561	      2.13417656	      0.63477274	     -0.01168010	      1.78992055	      0.58943183	     -0.00718717	      1.35964444	      0.54409092	     -0.08984471	      9.92935430	      4.03476065	      0.00000000	      0.00000000	     24.99773916	     -4.69511317	     14.56736008	      6.16639267	    -14.08451608	    137.36785054	      4.14769221	      2.42827746	     -2.00777607	     -8.67540983	     14.76841274	     -3.20187795	    150.63548375	      9.56948483	      4.13412926	     -1.27659647	     -5.46568894
      0.08695652	      5.03577834	     -4.43152581	     87.76842852	     -0.09978079	      0.81173602	      0.63314211	      1.81531931	      1.66938315	     -0.29074603	      8.32170237	      0.14524111	     25.75770004	      9.37188082	      0.00000000	     -1.74184723	     -2.83405574	      4.76798732	      1.54322521	      0.02693436	     22.84651906	    -13.40082843	      0.00000000	     -0.00269411	      0.86832786	      0.73927102	     -0.00500323	      1.15487605	      0.78547546	     -0.00442615	      2.11125236	      0.78547546	     -0.00307910	      2.11125236	      0.64686214	     -0.00250175	      1.77069417	      0.60065770	     -0.00153941	      1.34503986	      0.55445327	     -0.01924376	      9.82269842	      4.11160364	      0.00000000	      0.00000000	     25.06676420	     -4.42728350	     14.77668793	      6.19287731	    -13.98985232	    136.36828992	      4.50322546	      2.31441427	     -3.41148001	     -9.80747762	     15.55318322	     -3.45398026	    148.05097339	     12.03321681	      4.05153586	     -3.45947317	     -5.69155258
      0.10869565	      5.04134480	     -4.56503373	     87.64342387	     -0.09868349	      0.81187702	      0.63328455	      1.94209600	      1.74428564	     -0.26116165	      8.25170525	      0.14401943	     25.52997143	      9.47866377	      0.00000000	     -1.65188464	     -2.94601482	      5.17629021	      1.43904879	      0.02511614	     23.20198913	    -13.21678738	      0.00000000	      0.01388314	      0.86042035	      0.75644313	      0.02578237	      1.14435906	      0.80372082	      0.02280860	      2.09202603	      0.80372082	      0.01586704	      2.09202603	      0.66188774	      0.01289188	      1.75456917	      0.61461004	      0.00793282	      1.33279112	      0.56733235	      0.09916585	      9.73324705	      4.20710974	      0.00000000	      0.00000000	     25.19320868	     -4.34378349	     14.93500137	      6.31498007	    -13.83516529	    135.82842870	      4.47012712	      2.12800631	     -3.24411872	    -10.01487415	     16.03329590	     -3.47468711	    147.56751080	     13.19688368	      4.27051724	     -3.51425421	     -5.55406616
      0.13043478	      4.95669770	     -4.55716352	     87.55907344	     -0.09775680	      0.81220696	      0.63350802	      1.94211890	      1.67620846	     -0.82944998	      8.24181008	      0.14384672	     25.38300430	     10.20996390	      0.00000000	     -1.63561824	     -2.93326000	      5.25894046	      1.41447161	      0.02468719	     23.55621112	    -12.89553347	      0.00000000	      0.00659582	      0.84153706	      0.76326989	      0.01224910	      1.11924429	      0.81097426	      0.01083627	      2.04611322	      0.81097426	      0.00753836	      2.04611322	      0.66786115	      0.00612488	      1.71606238	      0.62015679	      0.00376885	      1.30354091	      0.57245242	      0.04711328	      9.51963557	      4.24507814	      0.00000000	      0.00000000	     25.22475774	     -4.12619412	     15.09565687	      6.48048105	    -13.80757212	    132.08326339	      5.00790816	      2.46578641	     -2.98683744	    -10.54026639	     16.27564411	     -4.02425873	    141.91312648	     14.90368024	      8.69242838	     -5.58818835	     -4.87629993
      0.15217391	      4.95152288	     -4.61576005	     87.11169401	     -0.09674855	      0.81253738	      0.63358632	      1.97585053	      1.69765261	     -0.64152625	      8.12767643	      0.14185471	     25.06562055	     10.55286442	      0.00000000	     -1.61525958	     -2.98228704	      3.85943808	      1.44979662	      0.02530372	     24.22180704	    -11.13099217	      0.00000000	      0.00985974	      0.84203080	      0.85711045	      0.01831052	      1.11990096	      0.91067986	      0.01619857	      2.04731368	      0.91067986	      0.01126870	      2.04731368	      0.74997165	      0.00915575	      1.71706920	      0.69640224	      0.00563386	      1.30430571	      0.64283284	      0.07042714	      9.52522080	      4.76699121	      0.00000000	      0.00000000	     25.28388975	     -4.01934440	     15.47692594	      6.51258896	    -13.86861940	    130.07109668	      5.19505442	      2.50017061	     -2.40663571	    -10.65143580	     16.54046545	     -3.89748269	    141.66790547	     15.49036242	     12.59368305	     -6.56274822	     -4.05921451
      0.17391304	      5.05248703	     -4.61036498	     87.17346545	     -0.09660637	      0.81294043	      0.63361278	      1.82040360	      1.81189911	     -0.81829021	      7.81608855	      0.13641648	     24.67167180	     10.72368877	      0.00000000	     -1.67210887	     -3.10075624	      5.26435024	      1.37268363	      0.02395785	     23.59010457	    -13.01932029	      0.00000000	      0.01262837	      0.85675800	      0.86302036	      0.02345215	      1.13948814	      0.91695914	      0.02074715	      2.08312140	      0.91695914	      0.01443297	      2.08312140	      0.75514282	      0.01172671	      1.74710091	      0.70120405	      0.00721585	      1.32711814	      0.64726527	      0.09020320	      9.69181783	      4.79986036	      0.00000000	      0.00000000	     25.30290734	     -4.21522237	     15.52808299	      6.51533535	    -14.01271331	    128.56497000	      5.59054501	      2.49537467	     -2.57312757	    -10.55490487	     16.90858602	     -2.82366060	    149.84615437	     14.94078590	     10.47518736	     -6.62955915	     -3.91534792
      0.19565217	      5.13063040	     -4.51850448	     87.09967013	     -0.09628870	      0.81336975	      0.63379569	      1.54290117	      1.90937689	     -0.71990572	      7.38590987	      0.12890845	     24.25417928	     10.79315786	      0.00000000	     -1.71178176	     -3.24411514	      2.50982923	      1.58492693	      0.02766219	     24.52519830	     -9.14290486	      0.00000000	     -0.00259965	      0.86731736	      0.86030043	     -0.00482780	      1.15353209	      0.91406921	     -0.00427096	      2.10879543	      0.91406921	     -0.00297113	      2.10879543	      0.75276288	     -0.00241403	      1.76863356	      0.69899410	     -0.00148544	      1.34347459	      0.64522532	     -0.01856901	      9.81126744	      4.78473292	      0.00000000	      0.00000000	     25.36157535	     -4.39013331	     15.48367984	      6.64496139	    -14.23139893	    125.88696828	      6.39543265	      3.08179945	     -2.85893311	    -10.30655628	     16.93528603	     -2.66687390	    149.67644730	     14.91231218	     15.68736532	     -7.27924042	     -3.04229511
      0.21739130	      5.22919122	     -4.52542348	     86.83973170	     -0.09604958	      0.81376076	      0.63379945	      1.43631599	      2.01566224	     -0.38625888	      7.11242109	      0.12413517	     23.93130296	     10.81967351	      0.00000000	     -1.81161927	     -3.30391730	      4.51691942	      1.47990100	      0.02582915	     23.52079065	    -12.54360583	      0.00000000	     -0.00082411	      0.89203617	      0.87186112	     -0.00153045	      1.18640811	      0.92635244	     -0.00135393	      2.16889675	      0.92635244	     -0.00094187	      2.16889675	      0.76287848	     -0.00076527	      1.81904016	      0.70838716	     -0.00047089	      1.38176403	      0.65389584	     -0.00588651	     10.09089158	      4.84902999	      0.00000000	      0.00000000	     25.19855071	     -4.19821395	     16.47723375	      6.70186112	    -14.18603845	    128.03729741	      5.88332816	      2.53478231	     -2.33491295	     -9.70153285	     16.48538741	     -0.90472474	    164.97876824	     12.27549274	      8.97591469	     -6.16535990	     -3.74019894
